<svg xmlns="http://www.w3.org/2000/svg" fill="#EF8451" xmlns:xlink="http://www.w3.org/1999/xlink" width="700pt" height="700pt" version="1.1" viewBox="0 0 700 700">
 <defs>
  <symbol id="m" overflow="visible">
   <path d="m37.516-2.25c-1.9297 1.0117-3.9453 1.7734-6.0469 2.2812-2.0938 0.50781-4.2812 0.76562-6.5625 0.76562-6.793 0-12.18-1.8984-16.156-5.7031-3.9688-3.8008-5.9531-8.957-5.9531-15.469 0-6.5195 1.9844-11.68 5.9531-15.484 3.9766-3.8008 9.3633-5.7031 16.156-5.7031 2.2812 0 4.4688 0.25781 6.5625 0.76562 2.1016 0.51172 4.1172 1.2656 6.0469 2.2656v8.4531c-1.9492-1.332-3.8711-2.3047-5.7656-2.9219-1.8984-0.625-3.8906-0.9375-5.9844-0.9375-3.7617 0-6.7188 1.2031-8.875 3.6094-2.1484 2.4062-3.2188 5.7266-3.2188 9.9531 0 4.2109 1.0703 7.5156 3.2188 9.9219 2.1562 2.4062 5.1133 3.6094 8.875 3.6094 2.0938 0 4.0859-0.30469 5.9844-0.92188 1.8945-0.625 3.8164-1.5977 5.7656-2.9219z"/>
  </symbol>
  <symbol id="h" overflow="visible">
   <path d="m27.453-22.281c-0.85547-0.40625-1.7109-0.70312-2.5625-0.89062-0.84375-0.19531-1.6953-0.29688-2.5469-0.29688-2.5234 0-4.4609 0.80859-5.8125 2.4219-1.3555 1.6172-2.0312 3.9297-2.0312 6.9375v14.109h-9.7969v-30.625h9.7969v5.0312c1.25-2.0078 2.6914-3.4727 4.3281-4.3906 1.6328-0.91406 3.5859-1.375 5.8594-1.375 0.33203 0 0.6875 0.015625 1.0625 0.046875 0.38281 0.023438 0.94141 0.078125 1.6719 0.17188z"/>
  </symbol>
  <symbol id="b" overflow="visible">
   <path d="m35.281-15.391v2.7812h-22.891c0.23828 2.3047 1.0664 4.0273 2.4844 5.1719 1.4258 1.1484 3.4141 1.7188 5.9688 1.7188 2.0508 0 4.1562-0.30078 6.3125-0.90625 2.1641-0.61328 4.3906-1.5391 6.6719-2.7812v7.5469c-2.3125 0.875-4.6328 1.5391-6.9531 1.9844-2.3125 0.44531-4.625 0.67188-6.9375 0.67188-5.543 0-9.8516-1.4062-12.922-4.2188-3.0742-2.8203-4.6094-6.7734-4.6094-11.859 0-5 1.5039-8.9258 4.5156-11.781 3.0195-2.8633 7.1758-4.2969 12.469-4.2969 4.8125 0 8.6602 1.4492 11.547 4.3438 2.8945 2.8984 4.3438 6.7734 4.3438 11.625zm-10.062-3.2656c0-1.8516-0.54688-3.3477-1.6406-4.4844-1.0859-1.1445-2.5-1.7188-4.25-1.7188-1.8984 0-3.4375 0.53906-4.625 1.6094-1.1797 1.0625-1.9141 2.5938-2.2031 4.5938z"/>
  </symbol>
  <symbol id="a" overflow="visible">
   <path d="m18.438-13.781c-2.043 0-3.5781 0.35156-4.6094 1.0469-1.0312 0.6875-1.5469 1.7031-1.5469 3.0469 0 1.2422 0.41016 2.2148 1.2344 2.9219 0.83203 0.69922 1.9883 1.0469 3.4688 1.0469 1.8438 0 3.3906-0.66016 4.6406-1.9844 1.2578-1.3203 1.8906-2.9727 1.8906-4.9531v-1.125zm14.953-3.6875v17.469h-9.875v-4.5469c-1.3125 1.8672-2.793 3.2266-4.4375 4.0781-1.6367 0.84375-3.6328 1.2656-5.9844 1.2656-3.168 0-5.7422-0.92578-7.7188-2.7812-1.9805-1.8516-2.9688-4.2539-2.9688-7.2031 0-3.5938 1.2344-6.2266 3.7031-7.9062 2.4688-1.6758 6.3477-2.5156 11.641-2.5156h5.7656v-0.76562c0-1.5508-0.60938-2.6875-1.8281-3.4062s-3.125-1.0781-5.7188-1.0781c-2.0938 0-4.0469 0.21484-5.8594 0.64062-1.8047 0.41797-3.4766 1.043-5.0156 1.875v-7.4688c2.0938-0.50781 4.1953-0.89453 6.3125-1.1562 2.1133-0.25781 4.2266-0.39062 6.3438-0.39062 5.5195 0 9.5039 1.0898 11.953 3.2656 2.457 2.1797 3.6875 5.7188 3.6875 10.625z"/>
  </symbol>
  <symbol id="g" overflow="visible">
   <path d="m15.391-39.328v8.7031h10.094v7h-10.094v12.984c0 1.4297 0.28125 2.3906 0.84375 2.8906 0.57031 0.5 1.6953 0.75 3.375 0.75h5.0312v7h-8.3906c-3.8672 0-6.6055-0.80469-8.2188-2.4219-1.6172-1.6133-2.4219-4.3516-2.4219-8.2188v-12.984h-4.875v-7h4.875v-8.7031z"/>
  </symbol>
  <symbol id="f" overflow="visible">
   <path d="m25.547-26.141v-16.406h9.8438v42.547h-9.8438v-4.4375c-1.3555 1.8125-2.8438 3.1406-4.4688 3.9844-1.6172 0.83203-3.4922 1.25-5.625 1.25-3.7734 0-6.8711-1.5-9.2969-4.5-2.4297-3-3.6406-6.8594-3.6406-11.578 0-4.7266 1.2109-8.5859 3.6406-11.578 2.4258-3 5.5234-4.5 9.2969-4.5 2.1133 0 3.9844 0.42188 5.6094 1.2656 1.6328 0.84375 3.1289 2.1641 4.4844 3.9531zm-6.4531 19.828c2.0938 0 3.6914-0.76562 4.7969-2.2969 1.1016-1.5312 1.6562-3.7539 1.6562-6.6719 0-2.9141-0.55469-5.1406-1.6562-6.6719-1.1055-1.5312-2.7031-2.2969-4.7969-2.2969-2.0859 0-3.6797 0.76562-4.7812 2.2969-1.1055 1.5312-1.6562 3.7578-1.6562 6.6719 0 2.918 0.55078 5.1406 1.6562 6.6719 1.1016 1.5312 2.6953 2.2969 4.7812 2.2969z"/>
  </symbol>
  <symbol id="e" overflow="visible">
   <path d="m21-6.3125c2.0938 0 3.6914-0.76562 4.7969-2.2969 1.1016-1.5312 1.6562-3.7539 1.6562-6.6719 0-2.9141-0.55469-5.1406-1.6562-6.6719-1.1055-1.5312-2.7031-2.2969-4.7969-2.2969s-3.7031 0.77344-4.8281 2.3125c-1.1172 1.5312-1.6719 3.75-1.6719 6.6562 0 2.8984 0.55469 5.1172 1.6719 6.6562 1.125 1.543 2.7344 2.3125 4.8281 2.3125zm-6.5-19.828c1.3438-1.7891 2.832-3.1094 4.4688-3.9531 1.6445-0.84375 3.5352-1.2656 5.6719-1.2656 3.7695 0 6.8672 1.5 9.2969 4.5 2.4258 2.9922 3.6406 6.8516 3.6406 11.578 0 4.7188-1.2148 8.5781-3.6406 11.578-2.4297 3-5.5273 4.5-9.2969 4.5-2.1367 0-4.0273-0.42188-5.6719-1.2656-1.6367-0.85156-3.125-2.1758-4.4688-3.9688v4.4375h-9.7969v-42.547h9.7969z"/>
  </symbol>
  <symbol id="d" overflow="visible">
   <path d="m0.6875-30.625h9.7812l8.2344 20.781 7-20.781h9.7969l-12.891 33.531c-1.293 3.4062-2.8047 5.7852-4.5312 7.1406-1.7188 1.3633-3.9922 2.0469-6.8125 2.0469h-5.6562v-6.4375h3.0625c1.6562 0 2.8594-0.26562 3.6094-0.79688 0.75781-0.52344 1.3516-1.4648 1.7812-2.8281l0.26562-0.85938z"/>
  </symbol>
  <symbol id="c" overflow="visible">
   <path d="m3.1406-40.828h34.328v6.375l-21.906 26.5h22.531v7.9531h-35.578v-6.375l21.906-26.5h-21.281z"/>
  </symbol>
  <symbol id="l" overflow="visible">
   <path d="m4.375-11.922v-18.703h9.8438v3.0625c0 1.6562-0.011719 3.7422-0.03125 6.25-0.011719 2.5-0.015625 4.1719-0.015625 5.0156 0 2.4609 0.0625 4.2305 0.1875 5.3125 0.125 1.0859 0.34375 1.875 0.65625 2.375 0.39453 0.63672 0.91406 1.125 1.5625 1.4688 0.65625 0.34375 1.3984 0.51562 2.2344 0.51562 2.0391 0 3.6445-0.78125 4.8125-2.3438 1.1641-1.5703 1.75-3.75 1.75-6.5312v-15.125h9.7969v30.625h-9.7969v-4.4375c-1.4805 1.793-3.043 3.1172-4.6875 3.9688-1.6484 0.84375-3.4648 1.2656-5.4531 1.2656-3.543 0-6.2422-1.082-8.0938-3.25-1.8438-2.1758-2.7656-5.332-2.7656-9.4688z"/>
  </symbol>
  <symbol id="k" overflow="visible">
   <path d="m4.7031-42.547h9.7969v42.547h-9.7969z"/>
  </symbol>
  <symbol id="j" overflow="visible">
   <path d="m24.859-42.547v6.4219h-5.4219c-1.3867 0-2.3555 0.25-2.9062 0.75-0.54297 0.5-0.8125 1.3711-0.8125 2.6094v2.1406h8.375v7h-8.375v23.625h-9.7812v-23.625h-4.875v-7h4.875v-2.1406c0-3.332 0.92578-5.7969 2.7812-7.3906 1.8633-1.5938 4.7422-2.3906 8.6406-2.3906z"/>
  </symbol>
  <symbol id="i" overflow="visible">
   <path d="m5.1406-40.828h13.406l9.2969 21.844 9.3438-21.844h13.375v40.828h-9.9531v-29.859l-9.4062 22.016h-6.6719l-9.4062-22.016v29.859h-9.9844z"/>
  </symbol>
 </defs>
 <g>
  <path d="m594.07 271.38c-8.2812-8.582-19.605-13.559-31.527-13.855-11.922-0.30078-23.48 4.1016-32.18 12.258l-103.98 92.477c-2.3984-7.5938-7.1484-14.23-13.566-18.953-6.4141-4.7188-14.164-7.2773-22.129-7.3086h-210.77c-2.3008-6.5312-6.5664-12.191-12.215-16.203-5.6445-4.0117-12.391-6.1758-19.316-6.1953h-22.398c-8.9062 0.007813-17.445 3.5508-23.742 9.8516-6.3008 6.3008-9.8398 14.84-9.8516 23.746v156.8c0.011718 8.9062 3.5508 17.449 9.8516 23.746 6.2969 6.3008 14.836 9.8438 23.742 9.8555h22.398c6.9258-0.023437 13.672-2.1875 19.316-6.1992 5.6484-4.0117 9.9141-9.6719 12.215-16.203h46.855c0.16016 0 0.28906-0.082031 0.44531-0.089844l14.141 5.8555c43.445 17.934 91.496 21.473 137.11 10.102 45.605-11.371 86.371-37.055 116.31-73.289l101.97-123.39c7.4492-8.9648 11.301-20.375 10.805-32.02-0.49609-11.645-5.3008-22.691-13.484-30.988zm-445.68 243.82h-22.398c-6.1836-0.003907-11.191-5.0156-11.195-11.199v-156.8c0.003906-6.1836 5.0117-11.195 11.195-11.199h22.398c6.1836 0.003906 11.191 5.0156 11.195 11.199v156.8c-0.003907 6.1836-5.0117 11.195-11.195 11.199zm67.188-22.398h-33.594v-134.4h33.594zm363.92-172.68-101.98 123.39c-26.895 32.539-63.508 55.605-104.47 65.816-40.961 10.215-84.117 7.0352-123.14-9.0742l-11.941-4.9375v-136.92h152.71c4.8047 0.003906 9.3281 2.2695 12.207 6.1133 2.8828 3.8477 3.7812 8.8242 2.4336 13.438-1.3516 4.6133-4.793 8.3164-9.293 10.004l-72.414 27.156c-5.7891 2.1836-8.7188 8.6367-6.5508 14.43 2.2383 5.7305 8.6328 8.6367 14.422 6.5508l72.414-27.156v-0.003906c4.5117-1.7617 8.6602-4.3398 12.238-7.6016l129.3-115c4.4453-4.1953 10.367-6.4727 16.48-6.332 6.1133 0.13672 11.922 2.6797 16.172 7.0781 4.293 4.3516 6.8125 10.145 7.0703 16.25 0.25781 6.1055-1.7617 12.09-5.668 16.789zm-235.19-8.0391-0.003906-0.003906c3.4922 2.0156 7.7969 2.0156 11.289 0 6.207-3.6289 152.14-89.961 152.14-192.36 0.003907-25.77-10.211-50.484-28.406-68.73-18.199-18.246-42.887-28.527-68.656-28.594-22.094-0.058594-43.535 7.4883-60.723 21.375-17.188-13.887-38.629-21.434-60.727-21.375-25.766 0.066406-50.457 10.348-68.652 28.594-18.195 18.246-28.414 42.961-28.41 68.73 0 102.39 145.93 188.73 152.14 192.36zm-55.086-267.28c19.824-0.050781 38.844 7.8477 52.797 21.93 4.4414 4.2227 11.414 4.2227 15.855 0 13.957-14.082 32.973-21.98 52.797-21.93 19.832 0.054688 38.828 7.9766 52.828 22.02 13.996 14.047 21.852 33.07 21.84 52.902 0 79.156-109.1 152.91-135.39 169.53-26.312-16.602-135.39-90.266-135.39-169.53h-0.003906c-0.007813-19.832 7.8438-38.855 21.844-52.902 13.996-14.043 32.996-21.965 52.824-22.02zm87.039 169.54c41.457-35.516 64.289-69.125 64.289-94.621v0.003906c0.023437-7.9531-3.1094-15.594-8.7109-21.238-5.6016-5.6484-13.215-8.8438-21.168-8.8828-6.1836 0-11.199-5.0156-11.199-11.203 0-6.1836 5.0156-11.199 11.199-11.199 13.895 0.050781 27.199 5.6055 36.996 15.453 9.8008 9.8477 15.293 23.176 15.277 37.07 0 41.203-39.215 83.441-72.121 111.64v-0.003906c-2.0312 1.7227-4.6172 2.6562-7.2812 2.6328-4.6328-0.082032-8.7383-2.9961-10.348-7.3398s-0.39453-9.2305 3.0664-12.312z"/>

 </g>
</svg>