<?xml version="1.0"?>

<svg xmlns="http://www.w3.org/2000/svg" xmlns:xlink="http://www.w3.org/1999/xlink" version="1.1" width="1166px" height="1166px" viewBox="0 0 1166 1166">
<defs/>
<rect x="0" y="0" width="1166" height="1166" fill="#ffffff" fill-opacity="0.99212598425197"/>
<rect x="46" y="46" width="29" height="29" fill="#000000"/>
<rect x="75" y="46" width="29" height="29" fill="#000000"/>
<rect x="104" y="46" width="29" height="29" fill="#000000"/>
<rect x="133" y="46" width="29" height="29" fill="#000000"/>
<rect x="162" y="46" width="29" height="29" fill="#000000"/>
<rect x="191" y="46" width="29" height="29" fill="#000000"/>
<rect x="220" y="46" width="29" height="29" fill="#000000"/>
<rect x="278" y="46" width="29" height="29" fill="#000000"/>
<rect x="307" y="46" width="29" height="29" fill="#000000"/>
<rect x="336" y="46" width="29" height="29" fill="#000000"/>
<rect x="452" y="46" width="29" height="29" fill="#000000"/>
<rect x="568" y="46" width="29" height="29" fill="#000000"/>
<rect x="597" y="46" width="29" height="29" fill="#000000"/>
<rect x="626" y="46" width="29" height="29" fill="#000000"/>
<rect x="713" y="46" width="29" height="29" fill="#000000"/>
<rect x="742" y="46" width="29" height="29" fill="#000000"/>
<rect x="829" y="46" width="29" height="29" fill="#000000"/>
<rect x="916" y="46" width="29" height="29" fill="#000000"/>
<rect x="945" y="46" width="29" height="29" fill="#000000"/>
<rect x="974" y="46" width="29" height="29" fill="#000000"/>
<rect x="1003" y="46" width="29" height="29" fill="#000000"/>
<rect x="1032" y="46" width="29" height="29" fill="#000000"/>
<rect x="1061" y="46" width="29" height="29" fill="#000000"/>
<rect x="1090" y="46" width="29" height="29" fill="#000000"/>
<rect x="46" y="75" width="29" height="29" fill="#000000"/>
<rect x="220" y="75" width="29" height="29" fill="#000000"/>
<rect x="278" y="75" width="29" height="29" fill="#000000"/>
<rect x="365" y="75" width="29" height="29" fill="#000000"/>
<rect x="394" y="75" width="29" height="29" fill="#000000"/>
<rect x="423" y="75" width="29" height="29" fill="#000000"/>
<rect x="452" y="75" width="29" height="29" fill="#000000"/>
<rect x="539" y="75" width="29" height="29" fill="#000000"/>
<rect x="597" y="75" width="29" height="29" fill="#000000"/>
<rect x="655" y="75" width="29" height="29" fill="#000000"/>
<rect x="713" y="75" width="29" height="29" fill="#000000"/>
<rect x="771" y="75" width="29" height="29" fill="#000000"/>
<rect x="800" y="75" width="29" height="29" fill="#000000"/>
<rect x="916" y="75" width="29" height="29" fill="#000000"/>
<rect x="1090" y="75" width="29" height="29" fill="#000000"/>
<rect x="46" y="104" width="29" height="29" fill="#000000"/>
<rect x="104" y="104" width="29" height="29" fill="#000000"/>
<rect x="133" y="104" width="29" height="29" fill="#000000"/>
<rect x="162" y="104" width="29" height="29" fill="#000000"/>
<rect x="220" y="104" width="29" height="29" fill="#000000"/>
<rect x="278" y="104" width="29" height="29" fill="#000000"/>
<rect x="365" y="104" width="29" height="29" fill="#000000"/>
<rect x="452" y="104" width="29" height="29" fill="#000000"/>
<rect x="481" y="104" width="29" height="29" fill="#000000"/>
<rect x="568" y="104" width="29" height="29" fill="#000000"/>
<rect x="626" y="104" width="29" height="29" fill="#000000"/>
<rect x="655" y="104" width="29" height="29" fill="#000000"/>
<rect x="684" y="104" width="29" height="29" fill="#000000"/>
<rect x="742" y="104" width="29" height="29" fill="#000000"/>
<rect x="771" y="104" width="29" height="29" fill="#000000"/>
<rect x="858" y="104" width="29" height="29" fill="#000000"/>
<rect x="916" y="104" width="29" height="29" fill="#000000"/>
<rect x="974" y="104" width="29" height="29" fill="#000000"/>
<rect x="1003" y="104" width="29" height="29" fill="#000000"/>
<rect x="1032" y="104" width="29" height="29" fill="#000000"/>
<rect x="1090" y="104" width="29" height="29" fill="#000000"/>
<rect x="46" y="133" width="29" height="29" fill="#000000"/>
<rect x="104" y="133" width="29" height="29" fill="#000000"/>
<rect x="133" y="133" width="29" height="29" fill="#000000"/>
<rect x="162" y="133" width="29" height="29" fill="#000000"/>
<rect x="220" y="133" width="29" height="29" fill="#000000"/>
<rect x="394" y="133" width="29" height="29" fill="#000000"/>
<rect x="452" y="133" width="29" height="29" fill="#000000"/>
<rect x="481" y="133" width="29" height="29" fill="#000000"/>
<rect x="510" y="133" width="29" height="29" fill="#000000"/>
<rect x="568" y="133" width="29" height="29" fill="#000000"/>
<rect x="684" y="133" width="29" height="29" fill="#000000"/>
<rect x="742" y="133" width="29" height="29" fill="#000000"/>
<rect x="800" y="133" width="29" height="29" fill="#000000"/>
<rect x="829" y="133" width="29" height="29" fill="#000000"/>
<rect x="916" y="133" width="29" height="29" fill="#000000"/>
<rect x="974" y="133" width="29" height="29" fill="#000000"/>
<rect x="1003" y="133" width="29" height="29" fill="#000000"/>
<rect x="1032" y="133" width="29" height="29" fill="#000000"/>
<rect x="1090" y="133" width="29" height="29" fill="#000000"/>
<rect x="46" y="162" width="29" height="29" fill="#000000"/>
<rect x="104" y="162" width="29" height="29" fill="#000000"/>
<rect x="133" y="162" width="29" height="29" fill="#000000"/>
<rect x="162" y="162" width="29" height="29" fill="#000000"/>
<rect x="220" y="162" width="29" height="29" fill="#000000"/>
<rect x="307" y="162" width="29" height="29" fill="#000000"/>
<rect x="336" y="162" width="29" height="29" fill="#000000"/>
<rect x="394" y="162" width="29" height="29" fill="#000000"/>
<rect x="568" y="162" width="29" height="29" fill="#000000"/>
<rect x="597" y="162" width="29" height="29" fill="#000000"/>
<rect x="655" y="162" width="29" height="29" fill="#000000"/>
<rect x="713" y="162" width="29" height="29" fill="#000000"/>
<rect x="771" y="162" width="29" height="29" fill="#000000"/>
<rect x="800" y="162" width="29" height="29" fill="#000000"/>
<rect x="916" y="162" width="29" height="29" fill="#000000"/>
<rect x="974" y="162" width="29" height="29" fill="#000000"/>
<rect x="1003" y="162" width="29" height="29" fill="#000000"/>
<rect x="1032" y="162" width="29" height="29" fill="#000000"/>
<rect x="1090" y="162" width="29" height="29" fill="#000000"/>
<rect x="46" y="191" width="29" height="29" fill="#000000"/>
<rect x="220" y="191" width="29" height="29" fill="#000000"/>
<rect x="278" y="191" width="29" height="29" fill="#000000"/>
<rect x="307" y="191" width="29" height="29" fill="#000000"/>
<rect x="336" y="191" width="29" height="29" fill="#000000"/>
<rect x="365" y="191" width="29" height="29" fill="#000000"/>
<rect x="394" y="191" width="29" height="29" fill="#000000"/>
<rect x="423" y="191" width="29" height="29" fill="#000000"/>
<rect x="452" y="191" width="29" height="29" fill="#000000"/>
<rect x="568" y="191" width="29" height="29" fill="#000000"/>
<rect x="597" y="191" width="29" height="29" fill="#000000"/>
<rect x="655" y="191" width="29" height="29" fill="#000000"/>
<rect x="684" y="191" width="29" height="29" fill="#000000"/>
<rect x="742" y="191" width="29" height="29" fill="#000000"/>
<rect x="771" y="191" width="29" height="29" fill="#000000"/>
<rect x="800" y="191" width="29" height="29" fill="#000000"/>
<rect x="858" y="191" width="29" height="29" fill="#000000"/>
<rect x="916" y="191" width="29" height="29" fill="#000000"/>
<rect x="1090" y="191" width="29" height="29" fill="#000000"/>
<rect x="46" y="220" width="29" height="29" fill="#000000"/>
<rect x="75" y="220" width="29" height="29" fill="#000000"/>
<rect x="104" y="220" width="29" height="29" fill="#000000"/>
<rect x="133" y="220" width="29" height="29" fill="#000000"/>
<rect x="162" y="220" width="29" height="29" fill="#000000"/>
<rect x="191" y="220" width="29" height="29" fill="#000000"/>
<rect x="220" y="220" width="29" height="29" fill="#000000"/>
<rect x="278" y="220" width="29" height="29" fill="#000000"/>
<rect x="336" y="220" width="29" height="29" fill="#000000"/>
<rect x="394" y="220" width="29" height="29" fill="#000000"/>
<rect x="452" y="220" width="29" height="29" fill="#000000"/>
<rect x="510" y="220" width="29" height="29" fill="#000000"/>
<rect x="568" y="220" width="29" height="29" fill="#000000"/>
<rect x="626" y="220" width="29" height="29" fill="#000000"/>
<rect x="684" y="220" width="29" height="29" fill="#000000"/>
<rect x="742" y="220" width="29" height="29" fill="#000000"/>
<rect x="800" y="220" width="29" height="29" fill="#000000"/>
<rect x="858" y="220" width="29" height="29" fill="#000000"/>
<rect x="916" y="220" width="29" height="29" fill="#000000"/>
<rect x="945" y="220" width="29" height="29" fill="#000000"/>
<rect x="974" y="220" width="29" height="29" fill="#000000"/>
<rect x="1003" y="220" width="29" height="29" fill="#000000"/>
<rect x="1032" y="220" width="29" height="29" fill="#000000"/>
<rect x="1061" y="220" width="29" height="29" fill="#000000"/>
<rect x="1090" y="220" width="29" height="29" fill="#000000"/>
<rect x="278" y="249" width="29" height="29" fill="#000000"/>
<rect x="307" y="249" width="29" height="29" fill="#000000"/>
<rect x="394" y="249" width="29" height="29" fill="#000000"/>
<rect x="481" y="249" width="29" height="29" fill="#000000"/>
<rect x="539" y="249" width="29" height="29" fill="#000000"/>
<rect x="597" y="249" width="29" height="29" fill="#000000"/>
<rect x="626" y="249" width="29" height="29" fill="#000000"/>
<rect x="713" y="249" width="29" height="29" fill="#000000"/>
<rect x="771" y="249" width="29" height="29" fill="#000000"/>
<rect x="104" y="278" width="29" height="29" fill="#000000"/>
<rect x="133" y="278" width="29" height="29" fill="#000000"/>
<rect x="162" y="278" width="29" height="29" fill="#000000"/>
<rect x="220" y="278" width="29" height="29" fill="#000000"/>
<rect x="278" y="278" width="29" height="29" fill="#000000"/>
<rect x="307" y="278" width="29" height="29" fill="#000000"/>
<rect x="365" y="278" width="29" height="29" fill="#000000"/>
<rect x="394" y="278" width="29" height="29" fill="#000000"/>
<rect x="423" y="278" width="29" height="29" fill="#000000"/>
<rect x="452" y="278" width="29" height="29" fill="#000000"/>
<rect x="481" y="278" width="29" height="29" fill="#000000"/>
<rect x="539" y="278" width="29" height="29" fill="#000000"/>
<rect x="568" y="278" width="29" height="29" fill="#000000"/>
<rect x="597" y="278" width="29" height="29" fill="#000000"/>
<rect x="626" y="278" width="29" height="29" fill="#000000"/>
<rect x="655" y="278" width="29" height="29" fill="#000000"/>
<rect x="684" y="278" width="29" height="29" fill="#000000"/>
<rect x="713" y="278" width="29" height="29" fill="#000000"/>
<rect x="742" y="278" width="29" height="29" fill="#000000"/>
<rect x="800" y="278" width="29" height="29" fill="#000000"/>
<rect x="829" y="278" width="29" height="29" fill="#000000"/>
<rect x="858" y="278" width="29" height="29" fill="#000000"/>
<rect x="887" y="278" width="29" height="29" fill="#000000"/>
<rect x="916" y="278" width="29" height="29" fill="#000000"/>
<rect x="945" y="278" width="29" height="29" fill="#000000"/>
<rect x="1032" y="278" width="29" height="29" fill="#000000"/>
<rect x="1061" y="278" width="29" height="29" fill="#000000"/>
<rect x="1090" y="278" width="29" height="29" fill="#000000"/>
<rect x="46" y="307" width="29" height="29" fill="#000000"/>
<rect x="104" y="307" width="29" height="29" fill="#000000"/>
<rect x="162" y="307" width="29" height="29" fill="#000000"/>
<rect x="249" y="307" width="29" height="29" fill="#000000"/>
<rect x="307" y="307" width="29" height="29" fill="#000000"/>
<rect x="365" y="307" width="29" height="29" fill="#000000"/>
<rect x="394" y="307" width="29" height="29" fill="#000000"/>
<rect x="510" y="307" width="29" height="29" fill="#000000"/>
<rect x="539" y="307" width="29" height="29" fill="#000000"/>
<rect x="597" y="307" width="29" height="29" fill="#000000"/>
<rect x="655" y="307" width="29" height="29" fill="#000000"/>
<rect x="684" y="307" width="29" height="29" fill="#000000"/>
<rect x="829" y="307" width="29" height="29" fill="#000000"/>
<rect x="916" y="307" width="29" height="29" fill="#000000"/>
<rect x="945" y="307" width="29" height="29" fill="#000000"/>
<rect x="974" y="307" width="29" height="29" fill="#000000"/>
<rect x="1061" y="307" width="29" height="29" fill="#000000"/>
<rect x="1090" y="307" width="29" height="29" fill="#000000"/>
<rect x="75" y="336" width="29" height="29" fill="#000000"/>
<rect x="133" y="336" width="29" height="29" fill="#000000"/>
<rect x="220" y="336" width="29" height="29" fill="#000000"/>
<rect x="307" y="336" width="29" height="29" fill="#000000"/>
<rect x="365" y="336" width="29" height="29" fill="#000000"/>
<rect x="394" y="336" width="29" height="29" fill="#000000"/>
<rect x="481" y="336" width="29" height="29" fill="#000000"/>
<rect x="510" y="336" width="29" height="29" fill="#000000"/>
<rect x="568" y="336" width="29" height="29" fill="#000000"/>
<rect x="597" y="336" width="29" height="29" fill="#000000"/>
<rect x="771" y="336" width="29" height="29" fill="#000000"/>
<rect x="829" y="336" width="29" height="29" fill="#000000"/>
<rect x="858" y="336" width="29" height="29" fill="#000000"/>
<rect x="887" y="336" width="29" height="29" fill="#000000"/>
<rect x="916" y="336" width="29" height="29" fill="#000000"/>
<rect x="974" y="336" width="29" height="29" fill="#000000"/>
<rect x="1003" y="336" width="29" height="29" fill="#000000"/>
<rect x="1032" y="336" width="29" height="29" fill="#000000"/>
<rect x="46" y="365" width="29" height="29" fill="#000000"/>
<rect x="75" y="365" width="29" height="29" fill="#000000"/>
<rect x="278" y="365" width="29" height="29" fill="#000000"/>
<rect x="307" y="365" width="29" height="29" fill="#000000"/>
<rect x="336" y="365" width="29" height="29" fill="#000000"/>
<rect x="365" y="365" width="29" height="29" fill="#000000"/>
<rect x="394" y="365" width="29" height="29" fill="#000000"/>
<rect x="452" y="365" width="29" height="29" fill="#000000"/>
<rect x="510" y="365" width="29" height="29" fill="#000000"/>
<rect x="568" y="365" width="29" height="29" fill="#000000"/>
<rect x="597" y="365" width="29" height="29" fill="#000000"/>
<rect x="655" y="365" width="29" height="29" fill="#000000"/>
<rect x="684" y="365" width="29" height="29" fill="#000000"/>
<rect x="713" y="365" width="29" height="29" fill="#000000"/>
<rect x="771" y="365" width="29" height="29" fill="#000000"/>
<rect x="829" y="365" width="29" height="29" fill="#000000"/>
<rect x="887" y="365" width="29" height="29" fill="#000000"/>
<rect x="945" y="365" width="29" height="29" fill="#000000"/>
<rect x="974" y="365" width="29" height="29" fill="#000000"/>
<rect x="1032" y="365" width="29" height="29" fill="#000000"/>
<rect x="46" y="394" width="29" height="29" fill="#000000"/>
<rect x="75" y="394" width="29" height="29" fill="#000000"/>
<rect x="162" y="394" width="29" height="29" fill="#000000"/>
<rect x="220" y="394" width="29" height="29" fill="#000000"/>
<rect x="249" y="394" width="29" height="29" fill="#000000"/>
<rect x="307" y="394" width="29" height="29" fill="#000000"/>
<rect x="510" y="394" width="29" height="29" fill="#000000"/>
<rect x="539" y="394" width="29" height="29" fill="#000000"/>
<rect x="684" y="394" width="29" height="29" fill="#000000"/>
<rect x="713" y="394" width="29" height="29" fill="#000000"/>
<rect x="771" y="394" width="29" height="29" fill="#000000"/>
<rect x="800" y="394" width="29" height="29" fill="#000000"/>
<rect x="829" y="394" width="29" height="29" fill="#000000"/>
<rect x="887" y="394" width="29" height="29" fill="#000000"/>
<rect x="916" y="394" width="29" height="29" fill="#000000"/>
<rect x="945" y="394" width="29" height="29" fill="#000000"/>
<rect x="974" y="394" width="29" height="29" fill="#000000"/>
<rect x="1061" y="394" width="29" height="29" fill="#000000"/>
<rect x="1090" y="394" width="29" height="29" fill="#000000"/>
<rect x="75" y="423" width="29" height="29" fill="#000000"/>
<rect x="278" y="423" width="29" height="29" fill="#000000"/>
<rect x="307" y="423" width="29" height="29" fill="#000000"/>
<rect x="423" y="423" width="29" height="29" fill="#000000"/>
<rect x="481" y="423" width="29" height="29" fill="#000000"/>
<rect x="539" y="423" width="29" height="29" fill="#000000"/>
<rect x="626" y="423" width="29" height="29" fill="#000000"/>
<rect x="684" y="423" width="29" height="29" fill="#000000"/>
<rect x="713" y="423" width="29" height="29" fill="#000000"/>
<rect x="800" y="423" width="29" height="29" fill="#000000"/>
<rect x="829" y="423" width="29" height="29" fill="#000000"/>
<rect x="858" y="423" width="29" height="29" fill="#000000"/>
<rect x="916" y="423" width="29" height="29" fill="#000000"/>
<rect x="945" y="423" width="29" height="29" fill="#000000"/>
<rect x="974" y="423" width="29" height="29" fill="#000000"/>
<rect x="1003" y="423" width="29" height="29" fill="#000000"/>
<rect x="1090" y="423" width="29" height="29" fill="#000000"/>
<rect x="46" y="452" width="29" height="29" fill="#000000"/>
<rect x="104" y="452" width="29" height="29" fill="#000000"/>
<rect x="162" y="452" width="29" height="29" fill="#000000"/>
<rect x="220" y="452" width="29" height="29" fill="#000000"/>
<rect x="278" y="452" width="29" height="29" fill="#000000"/>
<rect x="307" y="452" width="29" height="29" fill="#000000"/>
<rect x="365" y="452" width="29" height="29" fill="#000000"/>
<rect x="481" y="452" width="29" height="29" fill="#000000"/>
<rect x="626" y="452" width="29" height="29" fill="#000000"/>
<rect x="742" y="452" width="29" height="29" fill="#000000"/>
<rect x="771" y="452" width="29" height="29" fill="#000000"/>
<rect x="800" y="452" width="29" height="29" fill="#000000"/>
<rect x="829" y="452" width="29" height="29" fill="#000000"/>
<rect x="916" y="452" width="29" height="29" fill="#000000"/>
<rect x="974" y="452" width="29" height="29" fill="#000000"/>
<rect x="1003" y="452" width="29" height="29" fill="#000000"/>
<rect x="1032" y="452" width="29" height="29" fill="#000000"/>
<rect x="1061" y="452" width="29" height="29" fill="#000000"/>
<rect x="1090" y="452" width="29" height="29" fill="#000000"/>
<rect x="46" y="481" width="29" height="29" fill="#000000"/>
<rect x="75" y="481" width="29" height="29" fill="#000000"/>
<rect x="133" y="481" width="29" height="29" fill="#000000"/>
<rect x="394" y="481" width="29" height="29" fill="#000000"/>
<rect x="423" y="481" width="29" height="29" fill="#000000"/>
<rect x="452" y="481" width="29" height="29" fill="#000000"/>
<rect x="510" y="481" width="29" height="29" fill="#000000"/>
<rect x="539" y="481" width="29" height="29" fill="#000000"/>
<rect x="626" y="481" width="29" height="29" fill="#000000"/>
<rect x="655" y="481" width="29" height="29" fill="#000000"/>
<rect x="684" y="481" width="29" height="29" fill="#000000"/>
<rect x="713" y="481" width="29" height="29" fill="#000000"/>
<rect x="742" y="481" width="29" height="29" fill="#000000"/>
<rect x="800" y="481" width="29" height="29" fill="#000000"/>
<rect x="858" y="481" width="29" height="29" fill="#000000"/>
<rect x="945" y="481" width="29" height="29" fill="#000000"/>
<rect x="1003" y="481" width="29" height="29" fill="#000000"/>
<rect x="1061" y="481" width="29" height="29" fill="#000000"/>
<rect x="104" y="510" width="29" height="29" fill="#000000"/>
<rect x="133" y="510" width="29" height="29" fill="#000000"/>
<rect x="162" y="510" width="29" height="29" fill="#000000"/>
<rect x="220" y="510" width="29" height="29" fill="#000000"/>
<rect x="278" y="510" width="29" height="29" fill="#000000"/>
<rect x="307" y="510" width="29" height="29" fill="#000000"/>
<rect x="394" y="510" width="29" height="29" fill="#000000"/>
<rect x="452" y="510" width="29" height="29" fill="#000000"/>
<rect x="481" y="510" width="29" height="29" fill="#000000"/>
<rect x="510" y="510" width="29" height="29" fill="#000000"/>
<rect x="539" y="510" width="29" height="29" fill="#000000"/>
<rect x="597" y="510" width="29" height="29" fill="#000000"/>
<rect x="626" y="510" width="29" height="29" fill="#000000"/>
<rect x="684" y="510" width="29" height="29" fill="#000000"/>
<rect x="771" y="510" width="29" height="29" fill="#000000"/>
<rect x="829" y="510" width="29" height="29" fill="#000000"/>
<rect x="887" y="510" width="29" height="29" fill="#000000"/>
<rect x="945" y="510" width="29" height="29" fill="#000000"/>
<rect x="974" y="510" width="29" height="29" fill="#000000"/>
<rect x="1003" y="510" width="29" height="29" fill="#000000"/>
<rect x="1032" y="510" width="29" height="29" fill="#000000"/>
<rect x="1061" y="510" width="29" height="29" fill="#000000"/>
<rect x="1090" y="510" width="29" height="29" fill="#000000"/>
<rect x="104" y="539" width="29" height="29" fill="#000000"/>
<rect x="133" y="539" width="29" height="29" fill="#000000"/>
<rect x="162" y="539" width="29" height="29" fill="#000000"/>
<rect x="249" y="539" width="29" height="29" fill="#000000"/>
<rect x="365" y="539" width="29" height="29" fill="#000000"/>
<rect x="394" y="539" width="29" height="29" fill="#000000"/>
<rect x="423" y="539" width="29" height="29" fill="#000000"/>
<rect x="452" y="539" width="29" height="29" fill="#000000"/>
<rect x="481" y="539" width="29" height="29" fill="#000000"/>
<rect x="539" y="539" width="29" height="29" fill="#000000"/>
<rect x="626" y="539" width="29" height="29" fill="#000000"/>
<rect x="684" y="539" width="29" height="29" fill="#000000"/>
<rect x="742" y="539" width="29" height="29" fill="#000000"/>
<rect x="829" y="539" width="29" height="29" fill="#000000"/>
<rect x="858" y="539" width="29" height="29" fill="#000000"/>
<rect x="887" y="539" width="29" height="29" fill="#000000"/>
<rect x="916" y="539" width="29" height="29" fill="#000000"/>
<rect x="974" y="539" width="29" height="29" fill="#000000"/>
<rect x="1090" y="539" width="29" height="29" fill="#000000"/>
<rect x="46" y="568" width="29" height="29" fill="#000000"/>
<rect x="104" y="568" width="29" height="29" fill="#000000"/>
<rect x="133" y="568" width="29" height="29" fill="#000000"/>
<rect x="191" y="568" width="29" height="29" fill="#000000"/>
<rect x="220" y="568" width="29" height="29" fill="#000000"/>
<rect x="278" y="568" width="29" height="29" fill="#000000"/>
<rect x="394" y="568" width="29" height="29" fill="#000000"/>
<rect x="423" y="568" width="29" height="29" fill="#000000"/>
<rect x="452" y="568" width="29" height="29" fill="#000000"/>
<rect x="481" y="568" width="29" height="29" fill="#000000"/>
<rect x="510" y="568" width="29" height="29" fill="#000000"/>
<rect x="539" y="568" width="29" height="29" fill="#000000"/>
<rect x="684" y="568" width="29" height="29" fill="#000000"/>
<rect x="713" y="568" width="29" height="29" fill="#000000"/>
<rect x="742" y="568" width="29" height="29" fill="#000000"/>
<rect x="771" y="568" width="29" height="29" fill="#000000"/>
<rect x="800" y="568" width="29" height="29" fill="#000000"/>
<rect x="829" y="568" width="29" height="29" fill="#000000"/>
<rect x="858" y="568" width="29" height="29" fill="#000000"/>
<rect x="887" y="568" width="29" height="29" fill="#000000"/>
<rect x="916" y="568" width="29" height="29" fill="#000000"/>
<rect x="974" y="568" width="29" height="29" fill="#000000"/>
<rect x="1032" y="568" width="29" height="29" fill="#000000"/>
<rect x="1061" y="568" width="29" height="29" fill="#000000"/>
<rect x="1090" y="568" width="29" height="29" fill="#000000"/>
<rect x="46" y="597" width="29" height="29" fill="#000000"/>
<rect x="133" y="597" width="29" height="29" fill="#000000"/>
<rect x="162" y="597" width="29" height="29" fill="#000000"/>
<rect x="249" y="597" width="29" height="29" fill="#000000"/>
<rect x="278" y="597" width="29" height="29" fill="#000000"/>
<rect x="336" y="597" width="29" height="29" fill="#000000"/>
<rect x="365" y="597" width="29" height="29" fill="#000000"/>
<rect x="423" y="597" width="29" height="29" fill="#000000"/>
<rect x="452" y="597" width="29" height="29" fill="#000000"/>
<rect x="481" y="597" width="29" height="29" fill="#000000"/>
<rect x="539" y="597" width="29" height="29" fill="#000000"/>
<rect x="597" y="597" width="29" height="29" fill="#000000"/>
<rect x="626" y="597" width="29" height="29" fill="#000000"/>
<rect x="713" y="597" width="29" height="29" fill="#000000"/>
<rect x="771" y="597" width="29" height="29" fill="#000000"/>
<rect x="800" y="597" width="29" height="29" fill="#000000"/>
<rect x="858" y="597" width="29" height="29" fill="#000000"/>
<rect x="945" y="597" width="29" height="29" fill="#000000"/>
<rect x="1003" y="597" width="29" height="29" fill="#000000"/>
<rect x="46" y="626" width="29" height="29" fill="#000000"/>
<rect x="133" y="626" width="29" height="29" fill="#000000"/>
<rect x="220" y="626" width="29" height="29" fill="#000000"/>
<rect x="249" y="626" width="29" height="29" fill="#000000"/>
<rect x="336" y="626" width="29" height="29" fill="#000000"/>
<rect x="365" y="626" width="29" height="29" fill="#000000"/>
<rect x="423" y="626" width="29" height="29" fill="#000000"/>
<rect x="481" y="626" width="29" height="29" fill="#000000"/>
<rect x="684" y="626" width="29" height="29" fill="#000000"/>
<rect x="742" y="626" width="29" height="29" fill="#000000"/>
<rect x="829" y="626" width="29" height="29" fill="#000000"/>
<rect x="858" y="626" width="29" height="29" fill="#000000"/>
<rect x="916" y="626" width="29" height="29" fill="#000000"/>
<rect x="1003" y="626" width="29" height="29" fill="#000000"/>
<rect x="1032" y="626" width="29" height="29" fill="#000000"/>
<rect x="133" y="655" width="29" height="29" fill="#000000"/>
<rect x="162" y="655" width="29" height="29" fill="#000000"/>
<rect x="249" y="655" width="29" height="29" fill="#000000"/>
<rect x="278" y="655" width="29" height="29" fill="#000000"/>
<rect x="307" y="655" width="29" height="29" fill="#000000"/>
<rect x="336" y="655" width="29" height="29" fill="#000000"/>
<rect x="365" y="655" width="29" height="29" fill="#000000"/>
<rect x="394" y="655" width="29" height="29" fill="#000000"/>
<rect x="423" y="655" width="29" height="29" fill="#000000"/>
<rect x="539" y="655" width="29" height="29" fill="#000000"/>
<rect x="568" y="655" width="29" height="29" fill="#000000"/>
<rect x="655" y="655" width="29" height="29" fill="#000000"/>
<rect x="713" y="655" width="29" height="29" fill="#000000"/>
<rect x="742" y="655" width="29" height="29" fill="#000000"/>
<rect x="800" y="655" width="29" height="29" fill="#000000"/>
<rect x="887" y="655" width="29" height="29" fill="#000000"/>
<rect x="916" y="655" width="29" height="29" fill="#000000"/>
<rect x="945" y="655" width="29" height="29" fill="#000000"/>
<rect x="1061" y="655" width="29" height="29" fill="#000000"/>
<rect x="46" y="684" width="29" height="29" fill="#000000"/>
<rect x="75" y="684" width="29" height="29" fill="#000000"/>
<rect x="104" y="684" width="29" height="29" fill="#000000"/>
<rect x="133" y="684" width="29" height="29" fill="#000000"/>
<rect x="191" y="684" width="29" height="29" fill="#000000"/>
<rect x="220" y="684" width="29" height="29" fill="#000000"/>
<rect x="249" y="684" width="29" height="29" fill="#000000"/>
<rect x="278" y="684" width="29" height="29" fill="#000000"/>
<rect x="307" y="684" width="29" height="29" fill="#000000"/>
<rect x="336" y="684" width="29" height="29" fill="#000000"/>
<rect x="365" y="684" width="29" height="29" fill="#000000"/>
<rect x="394" y="684" width="29" height="29" fill="#000000"/>
<rect x="452" y="684" width="29" height="29" fill="#000000"/>
<rect x="481" y="684" width="29" height="29" fill="#000000"/>
<rect x="568" y="684" width="29" height="29" fill="#000000"/>
<rect x="684" y="684" width="29" height="29" fill="#000000"/>
<rect x="742" y="684" width="29" height="29" fill="#000000"/>
<rect x="829" y="684" width="29" height="29" fill="#000000"/>
<rect x="858" y="684" width="29" height="29" fill="#000000"/>
<rect x="916" y="684" width="29" height="29" fill="#000000"/>
<rect x="945" y="684" width="29" height="29" fill="#000000"/>
<rect x="974" y="684" width="29" height="29" fill="#000000"/>
<rect x="1003" y="684" width="29" height="29" fill="#000000"/>
<rect x="1032" y="684" width="29" height="29" fill="#000000"/>
<rect x="1061" y="684" width="29" height="29" fill="#000000"/>
<rect x="46" y="713" width="29" height="29" fill="#000000"/>
<rect x="104" y="713" width="29" height="29" fill="#000000"/>
<rect x="191" y="713" width="29" height="29" fill="#000000"/>
<rect x="249" y="713" width="29" height="29" fill="#000000"/>
<rect x="394" y="713" width="29" height="29" fill="#000000"/>
<rect x="423" y="713" width="29" height="29" fill="#000000"/>
<rect x="481" y="713" width="29" height="29" fill="#000000"/>
<rect x="510" y="713" width="29" height="29" fill="#000000"/>
<rect x="568" y="713" width="29" height="29" fill="#000000"/>
<rect x="597" y="713" width="29" height="29" fill="#000000"/>
<rect x="626" y="713" width="29" height="29" fill="#000000"/>
<rect x="684" y="713" width="29" height="29" fill="#000000"/>
<rect x="800" y="713" width="29" height="29" fill="#000000"/>
<rect x="858" y="713" width="29" height="29" fill="#000000"/>
<rect x="887" y="713" width="29" height="29" fill="#000000"/>
<rect x="916" y="713" width="29" height="29" fill="#000000"/>
<rect x="945" y="713" width="29" height="29" fill="#000000"/>
<rect x="1032" y="713" width="29" height="29" fill="#000000"/>
<rect x="46" y="742" width="29" height="29" fill="#000000"/>
<rect x="133" y="742" width="29" height="29" fill="#000000"/>
<rect x="220" y="742" width="29" height="29" fill="#000000"/>
<rect x="278" y="742" width="29" height="29" fill="#000000"/>
<rect x="394" y="742" width="29" height="29" fill="#000000"/>
<rect x="423" y="742" width="29" height="29" fill="#000000"/>
<rect x="481" y="742" width="29" height="29" fill="#000000"/>
<rect x="510" y="742" width="29" height="29" fill="#000000"/>
<rect x="539" y="742" width="29" height="29" fill="#000000"/>
<rect x="713" y="742" width="29" height="29" fill="#000000"/>
<rect x="829" y="742" width="29" height="29" fill="#000000"/>
<rect x="916" y="742" width="29" height="29" fill="#000000"/>
<rect x="1003" y="742" width="29" height="29" fill="#000000"/>
<rect x="1032" y="742" width="29" height="29" fill="#000000"/>
<rect x="1061" y="742" width="29" height="29" fill="#000000"/>
<rect x="1090" y="742" width="29" height="29" fill="#000000"/>
<rect x="46" y="771" width="29" height="29" fill="#000000"/>
<rect x="75" y="771" width="29" height="29" fill="#000000"/>
<rect x="104" y="771" width="29" height="29" fill="#000000"/>
<rect x="133" y="771" width="29" height="29" fill="#000000"/>
<rect x="162" y="771" width="29" height="29" fill="#000000"/>
<rect x="191" y="771" width="29" height="29" fill="#000000"/>
<rect x="307" y="771" width="29" height="29" fill="#000000"/>
<rect x="336" y="771" width="29" height="29" fill="#000000"/>
<rect x="365" y="771" width="29" height="29" fill="#000000"/>
<rect x="394" y="771" width="29" height="29" fill="#000000"/>
<rect x="481" y="771" width="29" height="29" fill="#000000"/>
<rect x="568" y="771" width="29" height="29" fill="#000000"/>
<rect x="597" y="771" width="29" height="29" fill="#000000"/>
<rect x="684" y="771" width="29" height="29" fill="#000000"/>
<rect x="742" y="771" width="29" height="29" fill="#000000"/>
<rect x="800" y="771" width="29" height="29" fill="#000000"/>
<rect x="829" y="771" width="29" height="29" fill="#000000"/>
<rect x="858" y="771" width="29" height="29" fill="#000000"/>
<rect x="887" y="771" width="29" height="29" fill="#000000"/>
<rect x="916" y="771" width="29" height="29" fill="#000000"/>
<rect x="1003" y="771" width="29" height="29" fill="#000000"/>
<rect x="46" y="800" width="29" height="29" fill="#000000"/>
<rect x="104" y="800" width="29" height="29" fill="#000000"/>
<rect x="133" y="800" width="29" height="29" fill="#000000"/>
<rect x="162" y="800" width="29" height="29" fill="#000000"/>
<rect x="191" y="800" width="29" height="29" fill="#000000"/>
<rect x="220" y="800" width="29" height="29" fill="#000000"/>
<rect x="249" y="800" width="29" height="29" fill="#000000"/>
<rect x="278" y="800" width="29" height="29" fill="#000000"/>
<rect x="307" y="800" width="29" height="29" fill="#000000"/>
<rect x="510" y="800" width="29" height="29" fill="#000000"/>
<rect x="539" y="800" width="29" height="29" fill="#000000"/>
<rect x="597" y="800" width="29" height="29" fill="#000000"/>
<rect x="771" y="800" width="29" height="29" fill="#000000"/>
<rect x="887" y="800" width="29" height="29" fill="#000000"/>
<rect x="916" y="800" width="29" height="29" fill="#000000"/>
<rect x="1003" y="800" width="29" height="29" fill="#000000"/>
<rect x="1032" y="800" width="29" height="29" fill="#000000"/>
<rect x="1061" y="800" width="29" height="29" fill="#000000"/>
<rect x="46" y="829" width="29" height="29" fill="#000000"/>
<rect x="133" y="829" width="29" height="29" fill="#000000"/>
<rect x="162" y="829" width="29" height="29" fill="#000000"/>
<rect x="307" y="829" width="29" height="29" fill="#000000"/>
<rect x="365" y="829" width="29" height="29" fill="#000000"/>
<rect x="394" y="829" width="29" height="29" fill="#000000"/>
<rect x="423" y="829" width="29" height="29" fill="#000000"/>
<rect x="452" y="829" width="29" height="29" fill="#000000"/>
<rect x="481" y="829" width="29" height="29" fill="#000000"/>
<rect x="510" y="829" width="29" height="29" fill="#000000"/>
<rect x="597" y="829" width="29" height="29" fill="#000000"/>
<rect x="626" y="829" width="29" height="29" fill="#000000"/>
<rect x="684" y="829" width="29" height="29" fill="#000000"/>
<rect x="742" y="829" width="29" height="29" fill="#000000"/>
<rect x="771" y="829" width="29" height="29" fill="#000000"/>
<rect x="858" y="829" width="29" height="29" fill="#000000"/>
<rect x="887" y="829" width="29" height="29" fill="#000000"/>
<rect x="1032" y="829" width="29" height="29" fill="#000000"/>
<rect x="46" y="858" width="29" height="29" fill="#000000"/>
<rect x="133" y="858" width="29" height="29" fill="#000000"/>
<rect x="162" y="858" width="29" height="29" fill="#000000"/>
<rect x="220" y="858" width="29" height="29" fill="#000000"/>
<rect x="278" y="858" width="29" height="29" fill="#000000"/>
<rect x="336" y="858" width="29" height="29" fill="#000000"/>
<rect x="394" y="858" width="29" height="29" fill="#000000"/>
<rect x="481" y="858" width="29" height="29" fill="#000000"/>
<rect x="510" y="858" width="29" height="29" fill="#000000"/>
<rect x="597" y="858" width="29" height="29" fill="#000000"/>
<rect x="626" y="858" width="29" height="29" fill="#000000"/>
<rect x="655" y="858" width="29" height="29" fill="#000000"/>
<rect x="771" y="858" width="29" height="29" fill="#000000"/>
<rect x="800" y="858" width="29" height="29" fill="#000000"/>
<rect x="858" y="858" width="29" height="29" fill="#000000"/>
<rect x="887" y="858" width="29" height="29" fill="#000000"/>
<rect x="916" y="858" width="29" height="29" fill="#000000"/>
<rect x="945" y="858" width="29" height="29" fill="#000000"/>
<rect x="974" y="858" width="29" height="29" fill="#000000"/>
<rect x="1032" y="858" width="29" height="29" fill="#000000"/>
<rect x="1090" y="858" width="29" height="29" fill="#000000"/>
<rect x="278" y="887" width="29" height="29" fill="#000000"/>
<rect x="336" y="887" width="29" height="29" fill="#000000"/>
<rect x="394" y="887" width="29" height="29" fill="#000000"/>
<rect x="423" y="887" width="29" height="29" fill="#000000"/>
<rect x="452" y="887" width="29" height="29" fill="#000000"/>
<rect x="510" y="887" width="29" height="29" fill="#000000"/>
<rect x="568" y="887" width="29" height="29" fill="#000000"/>
<rect x="597" y="887" width="29" height="29" fill="#000000"/>
<rect x="655" y="887" width="29" height="29" fill="#000000"/>
<rect x="713" y="887" width="29" height="29" fill="#000000"/>
<rect x="742" y="887" width="29" height="29" fill="#000000"/>
<rect x="800" y="887" width="29" height="29" fill="#000000"/>
<rect x="858" y="887" width="29" height="29" fill="#000000"/>
<rect x="974" y="887" width="29" height="29" fill="#000000"/>
<rect x="1061" y="887" width="29" height="29" fill="#000000"/>
<rect x="1090" y="887" width="29" height="29" fill="#000000"/>
<rect x="46" y="916" width="29" height="29" fill="#000000"/>
<rect x="75" y="916" width="29" height="29" fill="#000000"/>
<rect x="104" y="916" width="29" height="29" fill="#000000"/>
<rect x="133" y="916" width="29" height="29" fill="#000000"/>
<rect x="162" y="916" width="29" height="29" fill="#000000"/>
<rect x="191" y="916" width="29" height="29" fill="#000000"/>
<rect x="220" y="916" width="29" height="29" fill="#000000"/>
<rect x="307" y="916" width="29" height="29" fill="#000000"/>
<rect x="336" y="916" width="29" height="29" fill="#000000"/>
<rect x="365" y="916" width="29" height="29" fill="#000000"/>
<rect x="394" y="916" width="29" height="29" fill="#000000"/>
<rect x="423" y="916" width="29" height="29" fill="#000000"/>
<rect x="481" y="916" width="29" height="29" fill="#000000"/>
<rect x="568" y="916" width="29" height="29" fill="#000000"/>
<rect x="684" y="916" width="29" height="29" fill="#000000"/>
<rect x="742" y="916" width="29" height="29" fill="#000000"/>
<rect x="771" y="916" width="29" height="29" fill="#000000"/>
<rect x="800" y="916" width="29" height="29" fill="#000000"/>
<rect x="858" y="916" width="29" height="29" fill="#000000"/>
<rect x="916" y="916" width="29" height="29" fill="#000000"/>
<rect x="974" y="916" width="29" height="29" fill="#000000"/>
<rect x="1003" y="916" width="29" height="29" fill="#000000"/>
<rect x="1032" y="916" width="29" height="29" fill="#000000"/>
<rect x="1061" y="916" width="29" height="29" fill="#000000"/>
<rect x="1090" y="916" width="29" height="29" fill="#000000"/>
<rect x="46" y="945" width="29" height="29" fill="#000000"/>
<rect x="220" y="945" width="29" height="29" fill="#000000"/>
<rect x="336" y="945" width="29" height="29" fill="#000000"/>
<rect x="365" y="945" width="29" height="29" fill="#000000"/>
<rect x="394" y="945" width="29" height="29" fill="#000000"/>
<rect x="568" y="945" width="29" height="29" fill="#000000"/>
<rect x="655" y="945" width="29" height="29" fill="#000000"/>
<rect x="684" y="945" width="29" height="29" fill="#000000"/>
<rect x="713" y="945" width="29" height="29" fill="#000000"/>
<rect x="829" y="945" width="29" height="29" fill="#000000"/>
<rect x="858" y="945" width="29" height="29" fill="#000000"/>
<rect x="974" y="945" width="29" height="29" fill="#000000"/>
<rect x="1003" y="945" width="29" height="29" fill="#000000"/>
<rect x="1032" y="945" width="29" height="29" fill="#000000"/>
<rect x="46" y="974" width="29" height="29" fill="#000000"/>
<rect x="104" y="974" width="29" height="29" fill="#000000"/>
<rect x="133" y="974" width="29" height="29" fill="#000000"/>
<rect x="162" y="974" width="29" height="29" fill="#000000"/>
<rect x="220" y="974" width="29" height="29" fill="#000000"/>
<rect x="278" y="974" width="29" height="29" fill="#000000"/>
<rect x="394" y="974" width="29" height="29" fill="#000000"/>
<rect x="452" y="974" width="29" height="29" fill="#000000"/>
<rect x="568" y="974" width="29" height="29" fill="#000000"/>
<rect x="684" y="974" width="29" height="29" fill="#000000"/>
<rect x="742" y="974" width="29" height="29" fill="#000000"/>
<rect x="829" y="974" width="29" height="29" fill="#000000"/>
<rect x="858" y="974" width="29" height="29" fill="#000000"/>
<rect x="887" y="974" width="29" height="29" fill="#000000"/>
<rect x="916" y="974" width="29" height="29" fill="#000000"/>
<rect x="945" y="974" width="29" height="29" fill="#000000"/>
<rect x="974" y="974" width="29" height="29" fill="#000000"/>
<rect x="1003" y="974" width="29" height="29" fill="#000000"/>
<rect x="1061" y="974" width="29" height="29" fill="#000000"/>
<rect x="1090" y="974" width="29" height="29" fill="#000000"/>
<rect x="46" y="1003" width="29" height="29" fill="#000000"/>
<rect x="104" y="1003" width="29" height="29" fill="#000000"/>
<rect x="133" y="1003" width="29" height="29" fill="#000000"/>
<rect x="162" y="1003" width="29" height="29" fill="#000000"/>
<rect x="220" y="1003" width="29" height="29" fill="#000000"/>
<rect x="278" y="1003" width="29" height="29" fill="#000000"/>
<rect x="307" y="1003" width="29" height="29" fill="#000000"/>
<rect x="336" y="1003" width="29" height="29" fill="#000000"/>
<rect x="423" y="1003" width="29" height="29" fill="#000000"/>
<rect x="568" y="1003" width="29" height="29" fill="#000000"/>
<rect x="626" y="1003" width="29" height="29" fill="#000000"/>
<rect x="655" y="1003" width="29" height="29" fill="#000000"/>
<rect x="800" y="1003" width="29" height="29" fill="#000000"/>
<rect x="829" y="1003" width="29" height="29" fill="#000000"/>
<rect x="858" y="1003" width="29" height="29" fill="#000000"/>
<rect x="916" y="1003" width="29" height="29" fill="#000000"/>
<rect x="974" y="1003" width="29" height="29" fill="#000000"/>
<rect x="1061" y="1003" width="29" height="29" fill="#000000"/>
<rect x="1090" y="1003" width="29" height="29" fill="#000000"/>
<rect x="46" y="1032" width="29" height="29" fill="#000000"/>
<rect x="104" y="1032" width="29" height="29" fill="#000000"/>
<rect x="133" y="1032" width="29" height="29" fill="#000000"/>
<rect x="162" y="1032" width="29" height="29" fill="#000000"/>
<rect x="220" y="1032" width="29" height="29" fill="#000000"/>
<rect x="278" y="1032" width="29" height="29" fill="#000000"/>
<rect x="365" y="1032" width="29" height="29" fill="#000000"/>
<rect x="452" y="1032" width="29" height="29" fill="#000000"/>
<rect x="481" y="1032" width="29" height="29" fill="#000000"/>
<rect x="510" y="1032" width="29" height="29" fill="#000000"/>
<rect x="684" y="1032" width="29" height="29" fill="#000000"/>
<rect x="713" y="1032" width="29" height="29" fill="#000000"/>
<rect x="742" y="1032" width="29" height="29" fill="#000000"/>
<rect x="771" y="1032" width="29" height="29" fill="#000000"/>
<rect x="916" y="1032" width="29" height="29" fill="#000000"/>
<rect x="945" y="1032" width="29" height="29" fill="#000000"/>
<rect x="1032" y="1032" width="29" height="29" fill="#000000"/>
<rect x="1090" y="1032" width="29" height="29" fill="#000000"/>
<rect x="46" y="1061" width="29" height="29" fill="#000000"/>
<rect x="220" y="1061" width="29" height="29" fill="#000000"/>
<rect x="336" y="1061" width="29" height="29" fill="#000000"/>
<rect x="394" y="1061" width="29" height="29" fill="#000000"/>
<rect x="423" y="1061" width="29" height="29" fill="#000000"/>
<rect x="452" y="1061" width="29" height="29" fill="#000000"/>
<rect x="510" y="1061" width="29" height="29" fill="#000000"/>
<rect x="539" y="1061" width="29" height="29" fill="#000000"/>
<rect x="655" y="1061" width="29" height="29" fill="#000000"/>
<rect x="713" y="1061" width="29" height="29" fill="#000000"/>
<rect x="771" y="1061" width="29" height="29" fill="#000000"/>
<rect x="887" y="1061" width="29" height="29" fill="#000000"/>
<rect x="916" y="1061" width="29" height="29" fill="#000000"/>
<rect x="945" y="1061" width="29" height="29" fill="#000000"/>
<rect x="974" y="1061" width="29" height="29" fill="#000000"/>
<rect x="1061" y="1061" width="29" height="29" fill="#000000"/>
<rect x="46" y="1090" width="29" height="29" fill="#000000"/>
<rect x="75" y="1090" width="29" height="29" fill="#000000"/>
<rect x="104" y="1090" width="29" height="29" fill="#000000"/>
<rect x="133" y="1090" width="29" height="29" fill="#000000"/>
<rect x="162" y="1090" width="29" height="29" fill="#000000"/>
<rect x="191" y="1090" width="29" height="29" fill="#000000"/>
<rect x="220" y="1090" width="29" height="29" fill="#000000"/>
<rect x="336" y="1090" width="29" height="29" fill="#000000"/>
<rect x="365" y="1090" width="29" height="29" fill="#000000"/>
<rect x="452" y="1090" width="29" height="29" fill="#000000"/>
<rect x="481" y="1090" width="29" height="29" fill="#000000"/>
<rect x="510" y="1090" width="29" height="29" fill="#000000"/>
<rect x="568" y="1090" width="29" height="29" fill="#000000"/>
<rect x="597" y="1090" width="29" height="29" fill="#000000"/>
<rect x="626" y="1090" width="29" height="29" fill="#000000"/>
<rect x="713" y="1090" width="29" height="29" fill="#000000"/>
<rect x="742" y="1090" width="29" height="29" fill="#000000"/>
<rect x="771" y="1090" width="29" height="29" fill="#000000"/>
<rect x="800" y="1090" width="29" height="29" fill="#000000"/>
<rect x="829" y="1090" width="29" height="29" fill="#000000"/>
<rect x="945" y="1090" width="29" height="29" fill="#000000"/>
<rect x="1061" y="1090" width="29" height="29" fill="#000000"/>
<rect x="1090" y="1090" width="29" height="29" fill="#000000"/>
</svg>

